<svg width="188" height="43" viewBox="0 0 188 43" fill="none" xmlns="http://www.w3.org/2000/svg">
<path d="M166.694 0.571777H20.8607C9.35474 0.571777 0.0273438 9.89918 0.0273438 21.4051C0.0273438 32.911 9.35474 42.2384 20.8607 42.2384H166.694C178.2 42.2384 187.527 32.911 187.527 21.4051C187.527 9.89918 178.2 0.571777 166.694 0.571777Z" fill="#02B14F"/>
<path d="M26.1055 25.5966V19.0591H27.6805V25.3966C27.6805 26.0841 27.9388 26.4174 28.4721 26.4174C28.6513 26.4174 28.8471 26.3924 29.018 26.3466L29.293 27.5674C28.9596 27.6757 28.5971 27.734 28.2055 27.734C26.8471 27.734 26.1055 26.9757 26.1055 25.6007V25.5966ZM30.3721 25.5966V19.0591H31.9471V25.3966C31.9471 26.0841 32.2013 26.4174 32.7388 26.4174C32.9221 26.4174 33.1138 26.3924 33.2846 26.3466L33.5596 27.5674C33.2263 27.6757 32.8638 27.734 32.4721 27.734C31.1138 27.734 30.3721 26.9757 30.3721 25.6007V25.5966Z" fill="white"/>
<path d="M34.7813 24.7007V19.0591H36.3562V24.5299C36.3521 25.7299 37.0854 26.4798 38.2646 26.4798C39.4438 26.4798 40.1771 25.734 40.1812 24.5299V19.0591H41.7563V24.7007C41.7521 26.5923 40.3979 27.7924 38.2646 27.7924C36.1313 27.7924 34.7771 26.5882 34.7813 24.7007Z" fill="white"/>
<path d="M40.2188 17.955V15.2051H41.7146V17.955H40.2188Z" fill="white"/>
<path d="M50.6841 22.9803C50.6841 25.8761 49.2383 27.6302 46.8466 27.6302H45.4925L43.2383 19.0595H44.8425L46.6841 26.3178H46.8591C48.2633 26.3178 49.1008 25.0845 49.1008 23.022C49.1008 21.222 48.4924 20.2719 47.3508 20.2719C47.0883 20.2719 46.8133 20.3178 46.5258 20.4136L46.2549 19.1761C46.6633 19.0345 47.1133 18.9595 47.5675 18.9595C49.5633 18.9595 50.6799 20.4053 50.6799 22.9844L50.6841 22.9803Z" fill="white"/>
<path d="M52.5195 24.7009V19.0593H54.0945V24.5301C54.0945 25.7385 54.8237 26.4801 56.0029 26.4801C57.182 26.4801 57.9195 25.7343 57.9195 24.5301V16.3135H59.4945V24.7009C59.4945 26.5926 58.1362 27.7927 56.0029 27.7927C53.8695 27.7927 52.5195 26.5968 52.5195 24.7009Z" fill="white"/>
<path d="M54.1589 17.9552C52.9964 17.9552 52.4297 17.4178 52.4297 16.3261V15.8345H53.8713V16.1802C53.8713 16.5761 54.088 16.7678 54.5338 16.7678H57.0422V17.9552H54.163H54.1589Z" fill="white"/>
<path d="M61.6643 24.4841V19.0591H63.2393V24.2965C63.2351 25.5173 63.9602 26.3424 65.0268 26.3424C66.2227 26.3424 67.0893 25.3841 67.0935 24.0591V19.0591H68.6685V27.6298H67.1227V26.1341H67.0393C66.5893 27.1424 65.6435 27.734 64.4643 27.734C62.7185 27.734 61.656 26.5049 61.6602 24.4841H61.6643Z" fill="white"/>
<path d="M70.8828 27.6298V22.1966C70.8787 20.1549 72.2412 18.8965 74.4745 18.8965C76.7078 18.8965 78.1036 20.1549 78.1078 22.1966V27.6298H76.537V22.2757C76.5328 20.984 75.7453 20.1965 74.4578 20.1965C73.1703 20.1965 72.387 20.984 72.387 22.2757V24.334H72.4703C72.7703 23.459 73.5745 22.909 74.5287 22.909C74.7453 22.909 74.962 22.9382 75.1161 22.9882V24.4507C74.9161 24.3882 74.6537 24.3507 74.4203 24.3507C73.2745 24.3507 72.4412 25.1131 72.4453 26.1715V27.634H70.887L70.8828 27.6298Z" fill="white"/>
<path d="M79.9044 24.7301H81.4378C81.5919 25.7967 82.3086 26.451 83.3128 26.451C84.6711 26.451 85.5211 25.2593 85.5211 23.3427C85.5211 21.426 84.6836 20.2218 83.3461 20.2177C82.3086 20.2218 81.5586 20.9218 81.4044 22.0426H79.8711C80.0336 20.1259 81.4169 18.8926 83.4002 18.8926C85.7002 18.8926 87.1294 20.5968 87.1294 23.3427C87.1294 26.0885 85.6878 27.7926 83.3836 27.7926C81.4294 27.7926 80.0461 26.5759 79.9086 24.7301H79.9044Z" fill="white"/>
<path d="M92.1219 27.6298V21.6715C92.1219 20.7924 91.6344 20.2215 90.8719 20.2215C90.1927 20.2215 89.6844 20.6757 89.5302 21.4215L88.1094 21.159C88.3469 19.7715 89.4468 18.8965 90.9427 18.8965C92.626 18.8965 93.6927 19.9965 93.6927 21.7215V27.634H92.1177L92.1219 27.6298Z" fill="white"/>
<path d="M97.5318 26.1299H97.4443V27.6257H95.8984V19.055H97.4734V24.055C97.4734 25.3716 98.3526 26.3383 99.5401 26.3383C100.603 26.3383 101.328 25.4674 101.328 24.1966V19.0508H102.907V24.3841C102.907 26.455 101.828 27.7257 100.082 27.7257C98.911 27.7257 97.9693 27.1341 97.5276 26.1258L97.5318 26.1299Z" fill="white"/>
<path d="M106.286 27.6298L104.461 19.0591H106.019L107.186 25.1924H107.269L108.861 19.0591H110.303L111.898 25.1924H111.982L113.144 19.0591H114.703L112.878 27.6298H111.273L109.653 21.4965H109.528L107.89 27.6298H106.29H106.286Z" fill="white"/>
<path d="M115.989 25.0133C115.989 24.0175 116.464 23.255 117.28 22.9342V22.8467C116.422 22.555 115.98 21.955 115.98 21.0758C115.98 19.7217 116.989 18.9551 118.751 18.9551C119.214 18.9551 119.618 19.005 119.989 19.1134L119.735 20.3218C119.501 20.2634 119.268 20.2383 119.018 20.2383C118.076 20.2383 117.547 20.6217 117.547 21.3009C117.547 21.98 118.051 22.3384 118.926 22.3384H120.076V23.5134H118.943C118.097 23.5134 117.58 24.0301 117.58 24.8676C117.58 25.8676 118.305 26.4925 119.468 26.4925C120.768 26.4925 121.518 25.7134 121.518 24.3592V19.0592H123.093V24.53C123.093 26.5925 121.768 27.7926 119.476 27.7926C117.322 27.7926 115.989 26.7301 115.989 25.0093V25.0133Z" fill="white"/>
<path d="M128.458 27.6298V21.6715C128.458 20.7924 127.97 20.2215 127.208 20.2215C126.529 20.2215 126.02 20.6757 125.866 21.4215L124.445 21.159C124.683 19.7715 125.783 18.8965 127.279 18.8965C128.962 18.8965 130.029 19.9965 130.029 21.7215V27.634H128.454L128.458 27.6298Z" fill="white"/>
<path d="M131.918 25.0133C131.918 24.0175 132.393 23.255 133.21 22.9342V22.8467C132.352 22.555 131.91 21.955 131.91 21.0758C131.91 19.7217 132.918 18.9551 134.681 18.9551C135.143 18.9551 135.548 19.005 135.918 19.1134L135.664 20.3218C135.431 20.2634 135.198 20.2383 134.948 20.2383C134.006 20.2383 133.477 20.6217 133.477 21.3009C133.477 21.98 133.981 22.3384 134.856 22.3384H136.006V23.5134H134.873C134.027 23.5134 133.51 24.0301 133.51 24.8676C133.51 25.8676 134.235 26.4925 135.398 26.4925C136.698 26.4925 137.448 25.7134 137.448 24.3592V19.0592H139.023V24.53C139.023 26.5925 137.698 27.7926 135.406 27.7926C133.252 27.7926 131.918 26.7301 131.918 25.0093V25.0133Z" fill="white"/>
<path d="M144.384 27.6298V21.6715C144.384 20.7924 143.896 20.2215 143.134 20.2215C142.454 20.2215 141.946 20.6757 141.792 21.4215L140.371 21.159C140.609 19.7715 141.709 18.8965 143.204 18.8965C144.888 18.8965 145.954 19.9965 145.954 21.7215V27.634H144.379L144.384 27.6298Z" fill="white"/>
<path d="M149.793 26.1299H149.706V27.6257H148.16V19.055H149.735V24.055C149.735 25.3716 150.614 26.3383 151.802 26.3383C152.864 26.3383 153.589 25.4674 153.589 24.1966V19.0508H155.168V24.3841C155.168 26.455 154.089 27.7257 152.344 27.7257C151.173 27.7257 150.231 27.1341 149.789 26.1258L149.793 26.1299Z" fill="white"/>
<path d="M157.336 24.4841V19.0591H158.911V24.2965C158.907 25.5173 159.632 26.3424 160.699 26.3424C161.895 26.3424 162.761 25.3841 162.765 24.0591V19.0591H164.34V27.6298H162.795V26.1341H162.711C162.261 27.1424 161.32 27.734 160.136 27.734C158.39 27.734 157.328 26.5049 157.332 24.4841H157.336Z" fill="white"/>
<path d="M157.883 17.955V16.7425H162.941V15.5508H164.391V17.955H157.883Z" fill="white"/>
<path d="M161.963 14.7467V13.8883C161.963 13.6175 161.809 13.4883 161.479 13.4883H160.934V12.4717H162.117C162.854 12.4717 163.196 12.7759 163.196 13.4425V13.705H165.338V14.7467H161.963Z" fill="white"/>
</svg>
