<svg width="188" height="42" viewBox="0 0 188 42" fill="none" xmlns="http://www.w3.org/2000/svg">
<path d="M166.815 0.0712891H20.9818C9.47584 0.0712891 0.148438 9.39869 0.148438 20.9046C0.148438 32.4106 9.47584 41.738 20.9818 41.738H166.815C178.321 41.738 187.648 32.4106 187.648 20.9046C187.648 9.39869 178.321 0.0712891 166.815 0.0712891Z" fill="#02B14F"/>
<path d="M26.2266 25.0962V18.5586H27.8015V24.8961C27.8015 25.5836 28.0599 25.917 28.5932 25.917C28.7724 25.917 28.9682 25.8919 29.1391 25.8461L29.414 27.067C29.0807 27.1753 28.7182 27.2336 28.3266 27.2336C26.9682 27.2336 26.2266 26.4752 26.2266 25.1002V25.0962ZM30.4932 25.0962V18.5586H32.0682V24.8961C32.0682 25.5836 32.3224 25.917 32.8599 25.917C33.0432 25.917 33.2349 25.8919 33.4057 25.8461L33.6807 27.067C33.3474 27.1753 32.9849 27.2336 32.5932 27.2336C31.2349 27.2336 30.4932 26.4752 30.4932 25.1002V25.0962Z" fill="white"/>
<path d="M34.9024 24.2003V18.5586H36.4773V24.0295C36.4731 25.2295 37.2065 25.9795 38.3857 25.9795C39.5648 25.9795 40.2982 25.2336 40.3023 24.0295V18.5586H41.8773V24.2003C41.8732 26.0919 40.519 27.2919 38.3857 27.2919C36.2523 27.2919 34.8982 26.0878 34.9024 24.2003Z" fill="white"/>
<path d="M40.3398 17.4546V14.7046H41.8357V17.4546H40.3398Z" fill="white"/>
<path d="M50.8052 22.4794C50.8052 25.3752 49.3594 27.1294 46.9677 27.1294H45.6136L43.3594 18.5585H44.9636L46.8052 25.8169H46.9802C48.3844 25.8169 49.2219 24.5835 49.2219 22.521C49.2219 20.721 48.6135 19.7711 47.4719 19.7711C47.2094 19.7711 46.9344 19.8168 46.6469 19.9127L46.376 18.6752C46.7844 18.5335 47.2344 18.4585 47.6885 18.4585C49.6844 18.4585 50.801 19.9044 50.801 22.4836L50.8052 22.4794Z" fill="white"/>
<path d="M52.6406 24.2004V18.5588H54.2156V24.0296C54.2156 25.238 54.9448 25.9796 56.124 25.9796C57.3031 25.9796 58.0406 25.2338 58.0406 24.0296V15.813H59.6156V24.2004C59.6156 26.0921 58.2573 27.2921 56.124 27.2921C53.9906 27.2921 52.6406 26.0963 52.6406 24.2004Z" fill="white"/>
<path d="M54.2839 17.4544C53.1214 17.4544 52.5547 16.9169 52.5547 15.8252V15.3335H53.9963V15.6794C53.9963 16.0752 54.213 16.2668 54.6588 16.2668H57.1672V17.4544H54.288H54.2839Z" fill="white"/>
<path d="M61.7854 23.9836V18.5586H63.3604V23.7961C63.3562 25.017 64.0812 25.8419 65.1479 25.8419C66.3437 25.8419 67.2104 24.8836 67.2146 23.5586V18.5586H68.7896V27.1295H67.2438V25.6336H67.1604C66.7104 26.6419 65.7646 27.2336 64.5854 27.2336C62.8396 27.2336 61.7771 26.0044 61.7813 23.9836H61.7854Z" fill="white"/>
<path d="M71.0039 27.1293V21.696C70.9997 19.6543 72.3622 18.396 74.5956 18.396C76.8289 18.396 78.2247 19.6543 78.2289 21.696V27.1293H76.6581V21.7751C76.6539 20.4834 75.8664 19.6959 74.5789 19.6959C73.2914 19.6959 72.5081 20.4834 72.5081 21.7751V23.8335H72.5914C72.8914 22.9585 73.6956 22.4084 74.6497 22.4084C74.8664 22.4084 75.083 22.4377 75.2372 22.4877V23.9502C75.0372 23.8877 74.7747 23.8501 74.5414 23.8501C73.3956 23.8501 72.5622 24.6126 72.5664 25.671V27.1335H71.008L71.0039 27.1293Z" fill="white"/>
<path d="M80.0255 24.2335H81.5589C81.713 25.3002 82.4297 25.9543 83.4339 25.9543C84.7922 25.9543 85.6422 24.7626 85.6422 22.846C85.6422 20.9293 84.8047 19.7251 83.4672 19.721C82.4297 19.7251 81.6797 20.4252 81.5255 21.546H79.9922C80.1547 19.6294 81.538 18.396 83.5213 18.396C85.8213 18.396 87.2505 20.1001 87.2505 22.846C87.2505 25.5918 85.8089 27.2959 83.5047 27.2959C81.5505 27.2959 80.1672 26.0793 80.0297 24.2335H80.0255Z" fill="white"/>
<path d="M92.243 27.1293V21.171C92.243 20.2918 91.7555 19.721 90.993 19.721C90.3138 19.721 89.8055 20.1752 89.6513 20.921L88.2305 20.6585C88.468 19.271 89.5679 18.396 91.0638 18.396C92.7471 18.396 93.8138 19.496 93.8138 21.221V27.1335H92.2388L92.243 27.1293Z" fill="white"/>
<path d="M97.6529 25.6339H97.5654V27.1297H96.0195V18.5589H97.5945V23.5589C97.5945 24.8755 98.4737 25.8422 99.6612 25.8422C100.724 25.8422 101.449 24.9714 101.449 23.7006V18.5547H103.028V23.888C103.028 25.9589 101.949 27.2297 100.203 27.2297C99.032 27.2297 98.0904 26.638 97.6487 25.6297L97.6529 25.6339Z" fill="white"/>
<path d="M106.407 27.1295L104.582 18.5586H106.14L107.307 24.6919H107.39L108.982 18.5586H110.424L112.02 24.6919H112.103L113.265 18.5586H114.824L112.999 27.1295H111.395L109.774 20.9961H109.649L108.011 27.1295H106.411H106.407Z" fill="white"/>
<path d="M116.11 24.5129C116.11 23.5171 116.585 22.7546 117.402 22.4338V22.3463C116.543 22.0546 116.102 21.4546 116.102 20.5755C116.102 19.2213 117.11 18.4546 118.872 18.4546C119.335 18.4546 119.739 18.5046 120.11 18.613L119.856 19.8213C119.622 19.7629 119.389 19.738 119.139 19.738C118.197 19.738 117.668 20.1213 117.668 20.8005C117.668 21.4796 118.172 21.838 119.047 21.838H120.197V23.013H119.064C118.218 23.013 117.702 23.5297 117.702 24.3672C117.702 25.3672 118.427 25.9921 119.589 25.9921C120.889 25.9921 121.639 25.2129 121.639 23.8587V18.5588H123.214V24.0296C123.214 26.0921 121.889 27.2921 119.597 27.2921C117.443 27.2921 116.11 26.2296 116.11 24.5088V24.5129Z" fill="white"/>
<path d="M128.579 27.1293V21.171C128.579 20.2918 128.091 19.721 127.329 19.721C126.65 19.721 126.141 20.1752 125.987 20.921L124.566 20.6585C124.804 19.271 125.904 18.396 127.4 18.396C129.083 18.396 130.15 19.496 130.15 21.221V27.1335H128.575L128.579 27.1293Z" fill="white"/>
<path d="M132.04 24.5129C132.04 23.5171 132.515 22.7546 133.331 22.4338V22.3463C132.473 22.0546 132.031 21.4546 132.031 20.5755C132.031 19.2213 133.04 18.4546 134.802 18.4546C135.265 18.4546 135.669 18.5046 136.04 18.613L135.785 19.8213C135.552 19.7629 135.319 19.738 135.069 19.738C134.127 19.738 133.598 20.1213 133.598 20.8005C133.598 21.4796 134.102 21.838 134.977 21.838H136.127V23.013H134.994C134.148 23.013 133.631 23.5297 133.631 24.3672C133.631 25.3672 134.356 25.9921 135.519 25.9921C136.819 25.9921 137.569 25.2129 137.569 23.8587V18.5588H139.144V24.0296C139.144 26.0921 137.819 27.2921 135.527 27.2921C133.373 27.2921 132.04 26.2296 132.04 24.5088V24.5129Z" fill="white"/>
<path d="M144.505 27.1293V21.171C144.505 20.2918 144.017 19.721 143.255 19.721C142.576 19.721 142.067 20.1752 141.913 20.921L140.492 20.6585C140.73 19.271 141.83 18.396 143.326 18.396C145.009 18.396 146.076 19.496 146.076 21.221V27.1335H144.501L144.505 27.1293Z" fill="white"/>
<path d="M149.915 25.6339H149.827V27.1297H148.281V18.5589H149.856V23.5589C149.856 24.8755 150.735 25.8422 151.923 25.8422C152.985 25.8422 153.71 24.9714 153.71 23.7006V18.5547H155.29V23.888C155.29 25.9589 154.21 27.2297 152.465 27.2297C151.294 27.2297 150.352 26.638 149.91 25.6297L149.915 25.6339Z" fill="white"/>
<path d="M157.457 23.9836V18.5586H159.032V23.7961C159.028 25.017 159.753 25.8419 160.82 25.8419C162.016 25.8419 162.882 24.8836 162.886 23.5586V18.5586H164.461V27.1295H162.916V25.6336H162.832C162.382 26.6419 161.441 27.2336 160.257 27.2336C158.511 27.2336 157.449 26.0044 157.453 23.9836H157.457Z" fill="white"/>
<path d="M158.004 17.4545V16.242H163.062V15.0503H164.512V17.4545H158.004Z" fill="white"/>
<path d="M162.084 14.2462V13.3878C162.084 13.117 161.93 12.9878 161.6 12.9878H161.055V11.9712H162.238C162.976 11.9712 163.317 12.2753 163.317 12.942V13.2045H165.459V14.2462H162.084Z" fill="white"/>
</svg>
