<svg width="225" height="59" viewBox="0 0 225 59" fill="none" xmlns="http://www.w3.org/2000/svg">
<path d="M195.948 0.512695H29.7854C13.7669 0.512695 0.78125 13.4982 0.78125 29.5168C0.78125 45.5354 13.7669 58.521 29.7854 58.521H195.948C211.966 58.521 224.952 45.5354 224.952 29.5168C224.952 13.4982 211.966 0.512695 195.948 0.512695Z" fill="#A0D92A"/>
<path d="M24.4612 24.5665V18.1665H26.6779V24.3332C26.6779 24.8457 26.8946 25.0916 27.3446 25.0916C27.5071 25.0916 27.7279 25.0623 27.8987 25.0123L28.2404 26.629C27.7904 26.7665 27.3196 26.8415 26.8362 26.8415C25.2821 26.8415 24.457 26.0499 24.457 24.5665H24.4612ZM29.0904 24.5665V18.1665H31.3071V24.3332C31.3071 24.8457 31.5195 25.0916 31.9737 25.0916C32.1362 25.0916 32.357 25.0623 32.5237 25.0123L32.8654 26.629C32.4196 26.7665 31.9446 26.8415 31.4654 26.8415C29.9112 26.8415 29.0862 26.0499 29.0862 24.5665H29.0904Z" fill="#005339"/>
<path d="M33.8873 23.6625V18.1709H36.1081V23.4751C36.1081 24.5251 36.6873 25.1542 37.6623 25.1542C38.6373 25.1542 39.2164 24.5292 39.2206 23.4751V18.1709H41.4414V23.6625C41.4414 25.6417 39.9748 26.9 37.6623 26.9C35.3498 26.9 33.8747 25.6417 33.8789 23.6625H33.8873Z" fill="#005339"/>
<path d="M39.2773 17.1415V14.1831H41.3857V17.1415H39.2773Z" fill="#005339"/>
<path d="M50.6456 22.0667C50.6456 24.9792 49.1414 26.7417 46.6623 26.7417H44.8206L42.6289 18.1708H44.8789L46.4789 24.9708H46.7081C47.7789 24.9708 48.4456 23.9083 48.4456 22.1916C48.4456 20.6541 47.9331 19.8124 46.9789 19.8124C46.7623 19.8124 46.5498 19.8541 46.3164 19.9333L45.9748 18.2916C46.3831 18.15 46.8956 18.0708 47.3831 18.0708C49.4831 18.0708 50.6456 19.5 50.6456 22.0708V22.0667Z" fill="#005339"/>
<path d="M52.1646 23.6628V18.1712H54.3855V23.4753C54.3855 24.5337 54.9646 25.1545 55.9396 25.1545C56.9146 25.1545 57.4979 24.5295 57.4979 23.4753V15.1128H59.7188V23.6628C59.7188 25.642 58.2521 26.9003 55.9396 26.9003C53.6271 26.9003 52.1562 25.642 52.1562 23.6628H52.1646Z" fill="#005339"/>
<path d="M53.5752 17.1414C52.2711 17.1414 51.6211 16.5413 51.6211 15.3372V14.6372H53.5961V14.9831C53.5961 15.3997 53.8211 15.6039 54.2794 15.6039H56.7253V17.1372H53.5752V17.1414Z" fill="#005339"/>
<path d="M61.5511 23.6707V18.1665H63.7719V23.2748C63.7719 24.3123 64.3594 24.979 65.2636 24.979C66.2344 24.979 66.901 24.2373 66.901 23.1498V18.1665H69.1219V26.7374H66.9927V25.2041H66.9094C66.5052 26.2249 65.5511 26.8415 64.3719 26.8415C62.6552 26.8415 61.5427 25.5957 61.5469 23.6707H61.5511Z" fill="#005339"/>
<path d="M78.614 21.2791V26.7417H76.3932V21.2458C76.3932 20.2917 75.7557 19.7208 74.7057 19.7208C73.6557 19.7208 73.0432 20.2583 72.9641 21.2167L74.4391 21.3083V22.6333L74.0724 22.6083C73.5391 22.5708 73.2432 22.9458 73.2432 23.6292V26.7375H71.0349V23.9375C71.0349 22.9625 71.4432 22.325 72.2516 22.0625V21.9791L70.7891 21.8958V21.3875C70.7891 19.2458 72.239 18 74.7265 18C77.214 18 78.614 19.1999 78.614 21.2749V21.2791Z" fill="#005339"/>
<path d="M83.7357 26.7372V20.9122C83.7357 20.2289 83.3565 19.7831 82.7732 19.7831C82.1899 19.7831 81.8357 20.1705 81.7565 20.8413L79.7148 20.7081C79.8648 19.0539 81.0982 18.0039 82.8982 18.0039C84.7898 18.0039 85.9607 19.1664 85.9607 21.0289V26.7372H83.7399H83.7357Z" fill="#005339"/>
<path d="M87.3945 24.2872L89.5612 24.1663C89.6903 24.8538 90.1779 25.2247 90.9487 25.2247C91.7195 25.2247 92.1528 24.8872 92.1528 24.333C92.1528 23.858 91.8154 23.5455 91.1362 23.3914L89.7987 23.0872C88.3237 22.7539 87.5445 21.9122 87.5445 20.6455C87.5404 19.0288 88.8154 18.0039 90.8237 18.0039C92.832 18.0039 94.0195 18.9455 94.2528 20.558L92.2028 20.6872C92.057 20.0289 91.5653 19.6455 90.8653 19.6455C90.1653 19.6455 89.732 20.0039 89.732 20.5539C89.732 21.0164 90.0445 21.3164 90.6654 21.4497L92.1487 21.7539C93.5945 22.0539 94.382 22.8997 94.382 24.1581C94.382 25.8206 93.007 26.8997 90.8945 26.8997C88.9154 26.8997 87.6029 25.9205 87.3987 24.2872H87.3945Z" fill="#005339"/>
<path d="M104.011 17.729L102.486 19.7207C102.803 20.1373 102.974 20.6915 102.974 21.3623V26.7416H100.791V22.7582C100.432 22.9207 99.9823 23.0207 99.1573 23.1248C98.1531 23.254 97.6698 23.629 97.6698 24.2707C97.6698 24.9123 98.1364 25.229 98.9823 25.229C99.2864 25.229 99.5698 25.1832 99.799 25.0957L99.8781 26.6707C99.3948 26.7998 98.9406 26.8624 98.4323 26.8624C96.5156 26.8624 95.4531 25.9666 95.4531 24.3499C95.4531 22.7332 96.4948 21.8999 98.6906 21.729C100.32 21.604 100.791 21.4165 100.791 20.8915V20.7707C100.791 20.054 100.299 19.6582 99.4156 19.6582C98.5323 19.6582 97.9698 20.0374 97.7864 20.7041L95.6406 20.5373C95.9614 18.979 97.3198 18.0082 99.2073 18.0082C100.078 18.0082 100.766 18.1999 101.311 18.5957L102.02 17.7373H104.003L104.011 17.729Z" fill="#005339"/>
<path d="M104.899 23.6707V18.1665H107.12V23.2748C107.12 24.3123 107.707 24.979 108.611 24.979C109.582 24.979 110.249 24.2373 110.249 23.1498V18.1665H112.47V26.7374H110.34V25.2041H110.257C109.853 26.2249 108.899 26.8415 107.72 26.8415C106.003 26.8415 104.89 25.5957 104.895 23.6707H104.899Z" fill="#005339"/>
<path d="M109.989 17.1414C108.685 17.1414 108.035 16.5413 108.039 15.3372V14.6372H110.039V14.9831C110.039 15.3997 110.26 15.6039 110.722 15.6039H113.806V17.1372H109.985L109.989 17.1414Z" fill="#005339"/>
<path d="M114.348 23.6625V18.1709H116.569V23.4751C116.569 24.5251 117.148 25.1542 118.123 25.1542C119.098 25.1542 119.677 24.5292 119.682 23.4751V18.1709H121.902V23.6625C121.902 25.6417 120.436 26.9 118.123 26.9C115.811 26.9 114.336 25.6417 114.34 23.6625H114.348Z" fill="#005339"/>
<path d="M131.922 17.729L130.397 19.7207C130.713 20.1373 130.884 20.6915 130.884 21.3623V26.7416H128.701V22.7582C128.342 22.9207 127.892 23.0207 127.067 23.1248C126.063 23.254 125.58 23.629 125.58 24.2707C125.58 24.9123 126.047 25.229 126.892 25.229C127.197 25.229 127.48 25.1832 127.709 25.0957L127.788 26.6707C127.305 26.7998 126.851 26.8624 126.342 26.8624C124.426 26.8624 123.363 25.9666 123.363 24.3499C123.363 22.7332 124.405 21.8999 126.601 21.729C128.23 21.604 128.701 21.4165 128.701 20.8915V20.7707C128.701 20.054 128.209 19.6582 127.326 19.6582C126.442 19.6582 125.88 20.0374 125.697 20.7041L123.551 20.5373C123.872 18.979 125.23 18.0082 127.117 18.0082C127.988 18.0082 128.676 18.1999 129.222 18.5957L129.93 17.7373H131.913L131.922 17.729Z" fill="#005339"/>
<path d="M132.809 23.6707V18.1665H135.03V23.2748C135.03 24.3123 135.617 24.979 136.521 24.979C137.492 24.979 138.159 24.2373 138.159 23.1498V18.1665H140.38V26.7374H138.251V25.2041H138.167C137.763 26.2249 136.809 26.8415 135.63 26.8415C133.913 26.8415 132.801 25.5957 132.805 23.6707H132.809Z" fill="#005339"/>
<path d="M138.508 30.7752V29.2252H137.512V27.7544H140.428V30.7752H138.508Z" fill="#005339"/>
<path d="M142.258 23.6707V18.1665H144.483V23.2748C144.483 24.3123 145.066 24.979 145.975 24.979C146.941 24.979 147.612 24.2373 147.612 23.1498V18.1665H149.833V26.7374H147.704V25.2041H147.62C147.216 26.2249 146.262 26.8415 145.083 26.8415C143.366 26.8415 142.254 25.5957 142.258 23.6707Z" fill="#005339"/>
<path d="M151.682 23.7877V22.8919C151.682 22.0586 151.923 21.5336 152.603 20.9294C152.986 20.5919 153.136 20.3502 153.136 20.0586C153.136 19.7211 152.907 19.5294 152.511 19.5294C152.286 19.5294 152.061 19.5752 151.865 19.6502L151.586 18.2961C151.99 18.1502 152.507 18.0669 153.011 18.0669C154.448 18.0669 155.244 18.7044 155.248 19.8377C155.244 20.4252 155.04 20.8794 154.523 21.4627C154.061 21.9794 153.882 22.396 153.882 22.9335V23.7127C153.882 24.6252 154.378 25.1627 155.219 25.1627C156.061 25.1627 156.557 24.6252 156.557 23.7127V18.1669H158.786V23.7835C158.786 25.6752 157.39 26.896 155.24 26.896C153.09 26.896 151.686 25.671 151.686 23.7835L151.682 23.7877Z" fill="#005339"/>
<path d="M168.478 22.4122C168.478 25.1538 166.828 26.8997 164.244 26.8997C161.819 26.8997 160.273 25.4038 160.273 23.0288V21.9788H164.348V23.4497H162.436C162.544 24.5747 163.157 25.1706 164.207 25.1706C165.523 25.1706 166.207 24.2497 166.207 22.4539C166.207 20.658 165.532 19.7455 164.257 19.7455C163.365 19.7455 162.732 20.2206 162.561 21.0289H160.348C160.532 19.2289 162.14 18.0039 164.323 18.0039C166.882 18.0039 168.473 19.6913 168.473 22.4122H168.478Z" fill="#005339"/>
<path d="M177.329 22.0667C177.329 24.9792 175.825 26.7417 173.346 26.7417H171.504L169.312 18.1708H171.563L173.162 24.9708H173.392C174.463 24.9708 175.129 23.9083 175.129 22.1916C175.129 20.6541 174.617 19.8124 173.662 19.8124C173.446 19.8124 173.233 19.8541 173 19.9333L172.658 18.2916C173.067 18.15 173.579 18.0708 174.067 18.0708C176.167 18.0708 177.329 19.5 177.329 22.0708V22.0667Z" fill="#005339"/>
<path d="M178.844 26.7375V21.525C178.84 19.2958 180.286 18 182.777 18C185.269 18 186.736 19.2958 186.736 21.525V26.7375H184.527V21.525C184.527 20.3583 183.89 19.7166 182.736 19.7166C181.582 19.7166 180.936 20.3583 180.936 21.525V23.4208H181.019C181.298 22.4583 181.994 21.8958 182.89 21.8958C183.106 21.8958 183.323 21.9333 183.511 21.9874V23.9417C183.281 23.8625 183.007 23.8208 182.752 23.8208C181.715 23.8208 181.011 24.4875 181.011 25.4833V26.7333H178.84L178.844 26.7375Z" fill="#005339"/>
<path d="M184.816 30.7752V29.2252H183.82V27.7544H186.737V30.7752H184.812H184.816Z" fill="#005339"/>
<path d="M198.933 18.1666H201.153V26.7375H199.02V25.2333H198.933C198.553 26.2541 197.674 26.8417 196.528 26.8417C194.895 26.8417 193.862 25.6375 193.862 23.7417V21.2375C193.862 20.2875 193.224 19.7124 192.183 19.7124C191.141 19.7124 190.545 20.2583 190.462 21.2083L191.945 21.3V22.6333L191.574 22.6041C191.045 22.5666 190.745 22.9417 190.745 23.625V24.2791C190.745 24.8166 190.978 25.0792 191.474 25.0792C191.624 25.0792 191.845 25.0417 192.016 24.9958L192.358 26.6125C191.899 26.7583 191.428 26.8291 190.97 26.8291C189.412 26.8291 188.578 26.0166 188.578 24.5166V23.9375C188.578 22.9583 188.983 22.325 189.787 22.0625V21.9791L188.324 21.8958V21.3875C188.324 19.275 189.791 18 192.22 18C194.649 18 196.008 19.1999 196.008 21.2749V23.2666C196.008 24.3125 196.545 24.9833 197.395 24.9833C198.308 24.9833 198.933 24.275 198.933 23.225V18.1666Z" fill="#005339"/>
<path d="M35.9062 35.208C37.5562 35.5122 38.3896 36.5122 38.3896 38.1664V43.9164H36.1688V38.1247C36.1688 37.5497 35.9521 37.1747 35.5521 37.0539L34.6521 37.6873H34.4437L33.5354 37.0497C32.9229 37.3331 32.5396 38.3039 32.5396 39.6664C32.5396 41.3498 33.1729 42.2831 34.2979 42.2831C34.5313 42.2831 34.7646 42.2414 34.9646 42.1623L35.0438 43.8414C34.6479 43.9623 34.2188 44.0247 33.7896 44.0247C31.5854 44.0247 30.2812 42.4039 30.2812 39.6706C30.2812 37.1664 31.3479 35.5163 33.1771 35.208L34.4979 36.1039H34.5854L35.9062 35.208Z" fill="#005339"/>
<path d="M36.2227 34.3212V31.3628H38.331V34.3212H36.2227Z" fill="#005339"/>
<path d="M48.0948 39.5914C48.0948 42.333 46.4448 44.0789 43.8615 44.0789C41.4365 44.0789 39.8906 42.583 39.8906 40.208V39.1581H43.9615V40.6289H42.0489C42.1573 41.7539 42.7698 42.3498 43.8198 42.3498C45.1364 42.3498 45.8198 41.4289 45.8198 39.6331C45.8198 37.8372 45.1448 36.9247 43.8698 36.9247C42.9781 36.9247 42.3448 37.3998 42.174 38.2081H39.9615C40.1448 36.4081 41.7531 35.1831 43.9364 35.1831C46.4948 35.1831 48.0865 36.8705 48.0865 39.5914H48.0948Z" fill="#005339"/>
<path d="M57.9359 38.2373H62.3776V39.5749C62.3776 42.3666 60.4651 44.0623 57.7859 44.0623C54.7984 44.0623 52.7734 41.9791 52.7734 38.6207C52.7734 35.2624 54.9359 33.1582 57.7359 33.1582C60.1359 33.1582 61.9859 34.6332 62.2734 36.7332H59.9943C59.7109 35.7374 58.9276 35.1415 57.7734 35.1415C56.1526 35.1415 55.0484 36.3916 55.0484 38.5957C55.0484 40.7999 56.1109 42.0708 57.7942 42.0708C59.2859 42.0708 60.1818 41.2374 60.2151 39.9207H57.9359V38.2332V38.2373Z" fill="#005339"/>
<path d="M64.0156 43.9169V35.9585H66.1573V37.346H66.2406C66.5323 36.3627 67.2614 35.8418 68.1531 35.8418C68.3739 35.8418 68.6489 35.871 68.8489 35.921V37.8794C68.6406 37.8127 68.224 37.7585 67.9156 37.7585C66.9406 37.7585 66.2281 38.4335 66.2281 39.4127V43.9169H64.0198H64.0156Z" fill="#005339"/>
<path d="M76.8815 40.5043H71.4607C71.4607 41.696 72.1607 42.4251 73.2648 42.4251C74.0023 42.4251 74.569 42.1085 74.794 41.5043L76.8357 41.6377C76.5232 43.1127 75.1982 44.0709 73.2273 44.0709C70.7773 44.0709 69.2773 42.496 69.2773 39.971C69.2773 37.446 70.794 35.8501 73.1357 35.8501C75.2398 35.8501 76.8773 37.1877 76.8773 39.8918V40.5002L76.8815 40.5043ZM71.4607 39.1377H74.8023C74.7982 38.1877 74.1357 37.5043 73.1773 37.5043C72.219 37.5043 71.5107 38.2293 71.4607 39.1377Z" fill="#005339"/>
<path d="M85.5964 40.5043H80.1755C80.1755 41.696 80.8755 42.4251 81.9797 42.4251C82.7172 42.4251 83.2838 42.1085 83.5088 41.5043L85.5505 41.6377C85.238 43.1127 83.913 44.0709 81.9422 44.0709C79.4922 44.0709 77.9922 42.496 77.9922 39.971C77.9922 37.446 79.5089 35.8501 81.8505 35.8501C83.9547 35.8501 85.5922 37.1877 85.5922 39.8918V40.5002L85.5964 40.5043ZM80.1755 39.1377H83.5172C83.513 38.1877 82.8505 37.5043 81.8922 37.5043C80.9338 37.5043 80.2255 38.2293 80.1755 39.1377Z" fill="#005339"/>
<path d="M89.2396 43.9165H87.0312V35.9582H89.1354V37.3624H89.2271C89.5854 36.4332 90.4396 35.854 91.6229 35.854C93.2813 35.854 94.3687 36.9957 94.3687 38.8499V43.9165H92.1604V39.2416C92.1646 38.2666 91.6312 37.6874 90.7437 37.6874C89.8562 37.6874 89.2395 38.2874 89.2354 39.3165V43.9165H89.2396Z" fill="#005339"/>
<path d="M103.711 33.3042C106.119 33.3042 107.515 34.7917 107.515 36.9C107.515 39.0083 106.094 40.475 103.657 40.475H101.769V43.9167H99.5273V33.3042H103.715H103.711ZM103.29 38.6792C104.573 38.6792 105.202 37.9542 105.202 36.9C105.202 35.8458 104.577 35.1375 103.282 35.1375H101.769V38.675H103.294L103.29 38.6792Z" fill="#005339"/>
<path d="M108.93 43.9169V35.9585H111.071V37.346H111.155C111.446 36.3627 112.176 35.8418 113.067 35.8418C113.288 35.8418 113.563 35.871 113.763 35.921V37.8794C113.555 37.8127 113.138 37.7585 112.83 37.7585C111.855 37.7585 111.142 38.4335 111.142 39.4127V43.9169H108.934H108.93Z" fill="#005339"/>
<path d="M114.199 39.9666C114.199 37.4999 115.703 35.854 118.116 35.854C120.528 35.854 122.033 37.5041 122.033 39.9666C122.033 42.4291 120.528 44.0707 118.116 44.0707C115.703 44.0707 114.199 42.4166 114.199 39.9666ZM119.791 39.9499C119.791 38.5624 119.22 37.5374 118.128 37.5374C117.037 37.5374 116.445 38.5624 116.445 39.9499C116.445 41.3374 117.016 42.3582 118.128 42.3582C119.241 42.3582 119.791 41.3374 119.791 39.9499Z" fill="#005339"/>
<path d="M123.414 44.8496L125.455 44.5746C125.639 45.058 126.13 45.483 127.101 45.483C128.072 45.483 128.76 45.0579 128.76 43.9662V42.5079H128.668C128.376 43.1662 127.668 43.8038 126.397 43.8038C124.605 43.8038 123.168 42.5704 123.168 39.9246C123.168 37.2787 124.643 35.8579 126.393 35.8579C127.726 35.8579 128.372 36.6496 128.668 37.2996H128.751V35.9621H130.943V43.9996C130.943 46.0371 129.326 47.0746 127.051 47.0746C124.905 47.0746 123.676 46.1121 123.414 44.858V44.8496ZM128.772 39.9121C128.772 38.5204 128.172 37.6121 127.097 37.6121C126.022 37.6121 125.422 38.5621 125.422 39.9121C125.422 41.2621 126.014 42.1454 127.097 42.1454C128.18 42.1454 128.772 41.3162 128.772 39.9121Z" fill="#005339"/>
<path d="M132.703 43.9169V35.9585H134.845V37.346H134.928C135.22 36.3627 135.949 35.8418 136.841 35.8418C137.061 35.8418 137.336 35.871 137.536 35.921V37.8794C137.328 37.8127 136.911 37.7585 136.603 37.7585C135.628 37.7585 134.916 38.4335 134.916 39.4127V43.9169H132.707H132.703Z" fill="#005339"/>
<path d="M138.066 41.6954C138.066 39.9162 139.479 39.3913 141.058 39.2455C142.441 39.1121 142.987 39.0413 142.987 38.5288V38.4996C142.987 37.8454 142.558 37.4705 141.804 37.4705C141.012 37.4705 140.541 37.8579 140.391 38.3871L138.35 38.2205C138.654 36.7705 139.908 35.8579 141.816 35.8579C143.587 35.8579 145.196 36.6579 145.196 38.5537V43.9205H143.104V42.8162H143.041C142.654 43.5579 141.891 44.0704 140.716 44.0704C139.2 44.0704 138.075 43.2704 138.075 41.6954H138.066ZM143 41.0746V40.2287C142.737 40.4037 141.95 40.5205 141.466 40.5871C140.687 40.6955 140.175 41.0038 140.175 41.6246C140.175 42.2454 140.662 42.5454 141.341 42.5454C142.312 42.5454 143 41.9079 143 41.0746Z" fill="#005339"/>
<path d="M146.902 43.9165V35.9582H149.007V37.3624H149.098C149.432 36.4249 150.244 35.854 151.315 35.854C152.386 35.854 153.223 36.4416 153.477 37.3624H153.561C153.886 36.4499 154.794 35.854 155.961 35.854C157.444 35.854 158.469 36.8373 158.469 38.5623V43.9165H156.265V38.9999C156.265 38.1124 155.736 37.6749 155.032 37.6749C154.227 37.6749 153.757 38.2332 153.757 39.0582V43.9207H151.619V38.9582C151.619 38.1748 151.132 37.6791 150.407 37.6791C149.682 37.6791 149.111 38.2666 149.111 39.1457V43.9249H146.902V43.9165Z" fill="#005339"/>
<path d="M160.203 43.9165V35.9582H162.307V37.3624H162.399C162.732 36.4249 163.545 35.854 164.616 35.854C165.686 35.854 166.524 36.4416 166.778 37.3624H166.861C167.186 36.4499 168.095 35.854 169.261 35.854C170.745 35.854 171.77 36.8373 171.77 38.5623V43.9165H169.566V38.9999C169.566 38.1124 169.036 37.6749 168.332 37.6749C167.528 37.6749 167.057 38.2332 167.057 39.0582V43.9207H164.92V38.9582C164.92 38.1748 164.432 37.6791 163.707 37.6791C162.982 37.6791 162.411 38.2666 162.411 39.1457V43.9249H160.203V43.9165Z" fill="#005339"/>
<path d="M180.784 40.5043H175.363C175.363 41.696 176.063 42.4251 177.167 42.4251C177.904 42.4251 178.471 42.1085 178.696 41.5043L180.738 41.6377C180.425 43.1127 179.1 44.0709 177.134 44.0709C174.684 44.0709 173.184 42.496 173.184 39.971C173.184 37.446 174.7 35.8501 177.042 35.8501C179.146 35.8501 180.784 37.1877 180.784 39.8918V40.5002V40.5043ZM175.363 39.1377H178.704C178.7 38.1877 178.038 37.5043 177.079 37.5043C176.121 37.5043 175.413 38.2293 175.363 39.1377Z" fill="#005339"/>
</svg>
