<svg width="140" height="12" viewBox="0 0 140 12" fill="none" xmlns="http://www.w3.org/2000/svg">
<g opacity="0.57">
<path d="M0.598633 10.1837C1.03165 10.4045 1.7753 10.4254 2.4813 10.4629C1.94003 10.2504 1.36111 10.1587 0.598633 10.1837Z" fill="#43C554"/>
<path d="M2.49275 10.4668H2.50161C2.49276 10.4668 2.48392 10.4668 2.47949 10.4668C2.48392 10.4668 2.48833 10.4668 2.49275 10.471V10.4668Z" fill="#43C554"/>
<path d="M139.464 0.429199C139.29 0.433366 139.087 0.437545 138.885 0.441711C139.078 0.450045 139.276 0.450033 139.464 0.429199Z" fill="#43C554"/>
<path d="M36.6932 11.0834L36.8015 10.7167C38.477 10.7084 37.2909 11.1376 38.8394 11.0459C39.4466 10.5251 41.414 11.0959 41.9459 10.8209C41.9318 10.8625 42.6942 10.8792 42.6425 11.0417C42.8731 10.7584 43.4237 10.9751 43.8991 10.9043C44.0733 10.8251 43.7721 10.8209 43.6403 10.7334L44.7369 10.6334C45.1652 10.7251 45.2688 10.8917 44.8075 10.9209C47.6692 11.0209 61.4174 11.2792 64.5002 11.1376C64.1049 10.9251 63.1494 11.0709 62.7917 10.7334C63.606 10.5459 63.9919 10.8 64.3496 10.6C64.665 11.1 66.1429 10.7167 66.7595 11.225L66.9948 10.9417L67.3996 11.1126C70.986 10.8168 68.2185 10.9667 71.3955 11.0334C73.2358 10.9876 74.1113 10.5959 75.1327 10.7417C74.982 10.7417 74.5725 10.5668 75.0526 10.4918C75.1326 10.7418 76.3234 10.3126 76.554 10.5626C77.02 10.5293 78.5308 10.5626 78.0225 10.2209C78.2814 10.3917 79.6275 10.4584 78.8274 10.6042C79.2839 10.6125 79.7216 10.6626 80.0511 10.5876L79.4675 10.4918C81.0066 10.4418 81.8443 10.7042 82.8421 10.3959L82.2726 10.2626C83.1904 10.2418 83.9623 10.2126 84.32 10.5501L83.3787 10.6543C84.9037 10.6459 85.8215 10.6209 87.0923 10.4418L86.6404 10.4334C88.2595 10.0959 96.7268 9.81258 98.2141 9.39174L97.527 9.13346L98.8072 8.91262C98.6566 8.91262 98.1906 9.75838 98.0635 9.67505C100.812 9.65005 115.106 9.43759 117.643 9.61259C118.669 9.75426 117.827 10.0251 117.817 10.0668C119.065 9.96679 118.354 9.79175 119.413 9.81258C119.7 9.85841 119.352 10.0168 119.192 10.0543C119.658 10.0251 120.086 10.1126 120.124 9.99172C119.545 9.89589 119.79 9.57505 119.545 9.36255L120.91 9.38757L120.849 9.59174C121.154 9.5959 121.62 9.03337 122.957 9.1417C125.216 9.2292 127.669 9.15426 129.942 9.20009C129.909 9.32093 129.429 9.39588 128.953 9.46671C129.259 9.47088 129.721 9.44178 130.003 9.52928C129.452 9.31261 130.954 9.38341 130.525 9.29175C132.187 8.79175 134.343 9.24594 135.811 8.90428C135.938 8.45428 138.95 1.19176 138.95 0.658427C139.407 0.66676 139.859 0.675053 140 0.720886C139.882 0.595886 138.988 0.537545 138.508 0.608378L138.428 0.895955C137.331 0.995955 138.169 0.725077 137.101 0.745911C137.044 0.512577 138.028 0.462581 138.894 0.437581C138.113 0.412581 137.336 0.241703 137.016 0.49587C136.282 0.400037 137.096 0.208398 136.216 0.108398C135.585 0.179232 134.761 0.408455 134.037 0.270955L134.051 0.229248C132.295 -0.0124186 131.363 0.587598 129.754 0.350098L129.928 0.270955C129.358 0.137622 128.243 0.316797 127.217 0.17513C127.508 0.220964 127.763 0.391732 127.146 0.420898C125.969 0.275065 125.165 0.420927 124.303 0.24176L123.48 0.470947C119.38 0.429281 103.189 0.766801 99.0708 0.804301L99.2308 0.766764C92.9568 0.887598 80.0746 0.87511 73.5936 1.19594C72.591 0.970943 71.2073 1.02509 70.1624 0.962585C70.746 1.05425 70.5436 1.21679 70.0918 1.20846C66.9053 1.18346 69.8753 1.36257 66.6512 1.46257C62.9376 1.67507 48.7282 1.4459 45.4335 1.25423C43.6638 1.58757 41.4516 1.33755 39.7196 1.55005L39.8937 1.47091C38.0299 1.59591 27.487 1.29596 25.3219 1.41679L25.6137 1.46257C23.7263 1.6709 23.9852 1.30844 22.4932 1.19594C22.6909 1.56678 21.0718 1.78343 20.4552 1.80843L20.4787 1.72512C19.5468 1.78762 17.4429 2.11254 15.9038 2.16671L15.965 1.96254C14.6848 2.18338 12.275 2.09176 11.3525 2.11676C9.24861 2.03343 5.9963 1.6792 3.18171 1.9542L1.36023 1.37508L1.09195 1.43337C1.09195 1.43337 -1.8309 8.45845 1.88737 9.95428L1.82619 10.1584L2.56043 10.1334C3.44057 10.2334 3.85005 9.99589 3.78886 10.2001L2.57924 10.1751C3.4641 10.2335 2.84754 10.3418 2.50866 10.4584C2.88049 10.4793 3.23819 10.5001 3.53471 10.5626C3.70886 10.4834 3.40763 10.4792 3.26643 10.4334C3.7418 10.3626 4.40546 10.1709 4.98909 10.2626C5.89747 10.2793 5.04556 10.5917 6.10456 10.6125C11.6914 10.7667 17.1041 11.0001 22.7521 10.9501C22.8791 11.0334 22.7285 11.0334 22.5638 11.0709C24.2629 10.9834 25.7784 11.0125 27.3269 10.9209C27.7552 11.0125 27.8729 11.1376 28 11.221C27.7459 11.0501 36.552 11.0293 36.6932 11.0751V11.0834Z" fill="#43C554"/>
</g>
</svg>
